# File created by Blade
# Date/Time:  Thu Sep 25 19:32:06 2014
# Frame Rate: 120.000 fps
#------------------------------------------------------
:FULLY-SPECIFIED
:DEGREES
932
root -11.119064 32.278057 -10.122713 10.499179 10.962370 8.957489
Spine -1.512210 4.625905 -36.164659
Head 40.506049 27.243834 19.739432
LeftShoulder -8.262181 24.564774 7.307674
LeftArm 21.915683 28.156436 -54.431899
LeftForeArm 13.317088 0.000000 15.692691
LeftHand -29.234993 -0.000000 3.421694
LeftHandThumb1 -26.253704 0.000000 33.147579
RightShoulder -17.065659 22.669883 -47.009338
RightArm 19.473322 35.478489 25.205885
RightForeArm 21.401113 0.000000 44.939549
RightHand 4.857022 -0.000000 2.326519
RightHandThumb1 -24.326973 -0.000000 -32.862282
LeftUpLeg 1.667656 -5.127313 -12.209525
LeftLeg -5.353549 -0.000000 0.000000
LeftFoot -8.995081 1.595340 -12.571104
LeftToeBase 6.877076 -0.000000 -0.000000
RightUpLeg -18.167355 -7.540700 11.060358
RightLeg 17.209335 -0.000000 -0.000000
RightFoot -10.452546 -6.201230 -2.858566
RightToeBase -7.831957 -0.000000 0.000000
933
root -11.126868 32.277758 -10.124604 10.516275 10.935013 8.952294
Spine -1.475353 4.629875 -36.196109
Head 40.491149 27.272104 19.706573
LeftShoulder -8.279975 24.554106 7.307737
LeftArm 21.965369 28.146651 -54.354202
LeftForeArm 13.314769 -0.000000 15.715235
LeftHand -29.145436 -0.000000 3.174200
LeftHandThumb1 -26.253704 0.000000 33.147579
RightShoulder -17.088048 22.619228 -46.988227
RightArm 19.442054 35.513787 25.249108
RightForeArm 21.197370 -0.000000 44.920588
RightHand 4.940381 -0.000000 2.522679
RightHandThumb1 -24.326973 -0.000000 -32.862282
LeftUpLeg 1.646729 -5.119462 -12.196721
LeftLeg -5.360127 -0.000000 0.000000
LeftFoot -9.006243 1.588875 -12.566476
LeftToeBase 7.002021 -0.000000 -0.000000
RightUpLeg -18.193941 -7.528069 11.074780
RightLeg 17.222435 -0.000000 -0.000000
RightFoot -10.440026 -6.140474 -2.853521
RightToeBase -7.784559 -0.000000 0.000000
934
root -11.133850 32.277871 -10.127138 10.531403 10.917666 8.952721
Spine -1.425633 4.640909 -36.239153
Head 40.467623 27.301542 19.686264
LeftShoulder -8.306738 24.590513 7.302922
LeftArm 22.133109 28.168842 -54.216023
LeftForeArm 13.202033 -0.000000 15.657248
LeftHand -29.174436 -0.000000 3.582574
LeftHandThumb1 -26.253704 0.000000 33.147579
RightShoulder -17.125256 22.630634 -46.985270
RightArm 19.368721 35.493717 25.283499
RightForeArm 21.210294 -0.000000 44.954558
RightHand 4.861896 -0.000000 2.537536
RightHandThumb1 -24.326973 -0.000000 -32.862282
LeftUpLeg 1.623236 -5.106638 -12.188995
LeftLeg -5.367340 -0.000000 0.000000
LeftFoot -8.975757 1.635864 -12.629618
LeftToeBase 6.743616 -0.000000 -0.000000
RightUpLeg -18.221326 -7.535890 11.084750
RightLeg 17.234344 -0.000000 -0.000000
RightFoot -10.407218 -6.097989 -2.869492
RightToeBase -7.824927 -0.000000 0.000000
935
root -11.143151 32.278832 -10.131672 10.553254 10.903597 8.941757
Spine -1.377736 4.622722 -36.267144
Head 40.455390 27.358303 19.635190
LeftShoulder -8.334129 24.576349 7.300191
LeftArm 22.190302 28.151379 -54.135933
LeftForeArm 13.249871 0.000000 15.686706
LeftHand -29.103365 -0.000000 3.324161
LeftHandThumb1 -26.253704 0.000000 33.147579
RightShoulder -17.109547 22.729361 -47.060195
RightArm 19.109636 35.418998 25.294366
RightForeArm 21.136603 0.000000 45.042548
RightHand 4.906809 -0.000000 2.553964
RightHandThumb1 -24.326973 -0.000000 -32.862282
LeftUpLeg 1.579819 -5.093321 -12.164875
LeftLeg -5.362772 -0.000000 0.000000
LeftFoot -9.011247 1.639067 -12.523940
LeftToeBase 6.952711 -0.000000 -0.000000
RightUpLeg -18.258644 -7.530049 11.106831
RightLeg 17.244234 -0.000000 -0.000000
RightFoot -10.379737 -6.044764 -2.835201
RightToeBase -7.810487 -0.000000 0.000000
936
root -11.151808 32.279739 -10.135184 10.569418 10.889556 8.922225
Spine -1.328805 4.616632 -36.284139
Head 40.475287 27.406195 19.622371
LeftShoulder -8.337255 24.545036 7.291258
LeftArm 22.170797 28.065039 -54.097332
LeftForeArm 13.318471 -0.000000 15.794761
LeftHand -29.111327 -0.000000 3.097150
LeftHandThumb1 -26.253704 0.000000 33.147579
RightShoulder -17.122693 22.769988 -47.062957
RightArm 18.974483 35.355577 25.283585
RightForeArm 21.063753 -0.000000 45.082676
RightHand 4.860604 0.000000 2.475268
RightHandThumb1 -24.326973 -0.000000 -32.862282
LeftUpLeg 1.543616 -5.106082 -12.133946
LeftLeg -5.348094 -0.000000 0.000000
LeftFoot -9.032549 1.660851 -12.625921
LeftToeBase 7.003193 -0.000000 -0.000000
RightUpLeg -18.290770 -7.542591 11.143053
RightLeg 17.238533 -0.000000 -0.000000
RightFoot -10.300277 -5.954967 -2.907605
RightToeBase -8.033651 -0.000000 0.000000
937
root -11.158225 32.280598 -10.140041 10.586468 10.869187 8.924741
Spine -1.268865 4.610790 -36.328331
Head 40.487599 27.457134 19.623600
LeftShoulder -8.379236 24.523542 7.283639
LeftArm 22.282962 28.105671 -53.987440
LeftForeArm 13.236457 0.000000 15.773092
LeftHand -29.197651 0.000000 3.519516
LeftHandThumb1 -26.253704 0.000000 33.147579
RightShoulder -17.143252 22.818315 -47.062201
RightArm 18.853281 35.293655 25.272796
RightForeArm 21.085375 0.000000 45.106102
RightHand 4.857821 -0.000000 2.434980
RightHandThumb1 -24.326973 -0.000000 -32.862282
LeftUpLeg 1.505248 -5.104328 -12.137083
LeftLeg -5.305477 -0.000000 0.000000
LeftFoot -9.057331 1.677758 -12.763226
LeftToeBase 7.009949 -0.000000 -0.000000
RightUpLeg -18.331411 -7.578719 11.151760
RightLeg 17.269116 -0.000000 -0.000000
RightFoot -10.285679 -5.865349 -2.896380
RightToeBase -8.085553 -0.000000 0.000000
938
root -11.164924 32.281410 -10.144049 10.599573 10.859529 8.911148
Spine -1.216766 4.602436 -36.354267
Head 40.504197 27.485888 19.619450
LeftShoulder -8.356134 24.521401 7.306566
LeftArm 22.280513 28.001885 -53.998041
LeftForeArm 13.310295 -0.000000 15.846395
LeftHand -29.249316 -0.000000 3.518117
LeftHandThumb1 -26.253704 0.000000 33.147579
RightShoulder -17.074845 22.899111 -47.064699
RightArm 18.546976 35.196132 25.149525
RightForeArm 21.235159 -0.000000 45.208593
RightHand 4.823719 -0.000000 2.363805
RightHandThumb1 -24.326973 -0.000000 -32.862282
LeftUpLeg 1.471146 -5.096520 -12.107434
LeftLeg -5.310543 -0.000000 0.000000
LeftFoot -9.035527 1.698214 -12.697257
LeftToeBase 6.971691 -0.000000 -0.000000
RightUpLeg -18.364332 -7.616938 11.181610
RightLeg 17.282115 -0.000000 -0.000000
RightFoot -10.268309 -5.786696 -2.850103
RightToeBase -8.070742 -0.000000 0.000000
939
root -11.170470 32.281512 -10.149886 10.629514 10.841767 8.905382
Spine -1.177943 4.603771 -36.382733
Head 40.501993 27.513590 19.587570
LeftShoulder -8.338079 24.478077 7.326269
LeftArm 22.268377 27.948772 -54.003850
LeftForeArm 13.339257 -0.000000 15.905739
LeftHand -29.268122 -0.000000 3.513755
LeftHandThumb1 -26.253704 0.000000 33.147579
RightShoulder -17.060251 22.908081 -47.046639
RightArm 18.387781 35.184608 25.096264
RightForeArm 21.051313 -0.000000 45.207879
RightHand 4.819923 -0.000000 2.503653
RightHandThumb1 -24.326973 -0.000000 -32.862282
LeftUpLeg 1.419110 -5.102272 -12.106034
LeftLeg -5.286761 -0.000000 0.000000
LeftFoot -9.104124 1.759102 -12.699542
LeftToeBase 7.040128 -0.000000 -0.000000
RightUpLeg -18.419154 -7.640576 11.201058
RightLeg 17.311500 -0.000000 -0.000000
RightFoot -10.264557 -5.723096 -2.850847
RightToeBase -8.044871 -0.000000 0.000000
940
root -11.177921 32.281514 -10.156748 10.665571 10.829354 8.903900
Spine -1.125073 4.616216 -36.415682
Head 40.443441 27.570481 19.488195
LeftShoulder -8.338499 24.456704 7.348494
LeftArm 22.332830 27.909412 -53.964322
LeftForeArm 13.342161 -0.000000 15.952724
LeftHand -29.277227 0.000000 3.560718
LeftHandThumb1 -26.253704 0.000000 33.147579
RightShoulder -17.081788 22.897788 -47.033970
RightArm 18.254722 35.155438 25.040029
RightForeArm 21.039322 0.000000 45.204928
RightHand 4.953148 0.000000 2.473207
RightHandThumb1 -24.326973 -0.000000 -32.862282
LeftUpLeg 1.358056 -5.097617 -12.085113
LeftLeg -5.276070 -0.000000 0.000000
LeftFoot -9.088783 1.723596 -12.620846
LeftToeBase 7.032263 -0.000000 -0.000000
RightUpLeg -18.488233 -7.684385 11.225035
RightLeg 17.348320 -0.000000 -0.000000
RightFoot -10.253159 -5.645946 -2.860288
RightToeBase -8.034656 -0.000000 0.000000
941
root -11.183539 32.282386 -10.163425 10.691472 10.814496 8.902301
Spine -1.074426 4.619894 -36.450423
Head 40.475933 27.611702 19.475919
LeftShoulder -8.338087 24.450193 7.369377
LeftArm 22.389504 27.857567 -53.943445
LeftForeArm 13.348890 0.000000 15.996612
LeftHand -29.267873 0.000000 3.676011
LeftHandThumb1 -26.253704 0.000000 33.147579
RightShoulder -17.068327 22.890211 -46.997639
RightArm 18.115710 35.165094 24.998562
RightForeArm 21.089318 -0.000000 45.226009
RightHand 4.926206 0.000000 2.540611
RightHandThumb1 -24.326973 -0.000000 -32.862282
LeftUpLeg 1.310717 -5.097637 -12.076756
LeftLeg -5.259370 -0.000000 0.000000
LeftFoot -9.072529 1.757933 -12.677076
LeftToeBase 6.877707 -0.000000 -0.000000
RightUpLeg -18.544078 -7.720433 11.240089
RightLeg 17.383255 -0.000000 -0.000000
RightFoot -10.241246 -5.554779 -2.808007
RightToeBase -8.030191 -0.000000 0.000000
